<?xml version="1.0" standalone="no"?>
<!DOCTYPE svg PUBLIC "-//W3C//DTD SVG 1.1//EN" "http://www.w3.org/Graphics/SVG/1.1/DTD/svg11.dtd" >
<svg xmlns="http://www.w3.org/2000/svg">
<metadata>Generated by IcoMoon</metadata>
<defs>
<font id="icomoon" horiz-adv-x="1024">
<font-face units-per-em="1024" ascent="960" descent="-64" />
<missing-glyph horiz-adv-x="1024" />
<glyph unicode="&#x20;" horiz-adv-x="512" d="" />
<glyph unicode="&#xe900;" glyph-name="activity_centre" horiz-adv-x="879" d="M104.196 256.919c0 374.978 155.479 676.788 356.685 676.788 0 0 0-301.811 0-676.788h-356.685zM524.903 256.919c0 228.644 0 420.705 0 420.705 118.894 0 219.499-192.061 219.499-420.705h-219.499zM854.151-26.6h-9.145c-18.292 18.292-54.875 36.582-91.457 36.582s-73.167-9.145-91.457-36.582c-9.145-9.145-18.292-9.145-18.292 0-18.292 18.292-54.875 36.582-91.457 36.582s-73.167-9.145-91.457-36.582c-9.145-9.145-18.292-9.145-18.292 0-18.292 18.292-54.875 36.582-91.457 36.582s-73.167-9.145-91.457-36.582c-9.145-9.145-18.292-9.145-18.292 0-18.292 18.292-54.875 36.582-91.457 36.582s-73.167-9.145-91.457-36.582c-9.145-9.145-18.292-9.145-18.292 0-9.145 9.145-9.145 18.292 0 27.437 27.437 27.437 73.167 45.73 109.749 45.73s73.167-9.145 100.604-36.582c27.437 18.292 64.020 36.582 100.604 36.582 36.582 0 73.167-9.145 100.604-36.582 27.437 18.292 64.020 36.582 100.604 36.582s73.167-9.145 100.604-36.582c27.437 18.292 64.020 36.582 100.604 36.582 45.73 0 82.312-18.292 109.749-45.73 9.145-9.145 9.145-18.292 0-27.437-0.010 0-9.155 0-9.155 0zM241.382 64.857c27.437 18.292 64.020 18.292 91.457 18.292 36.582 0 73.167-9.145 100.604-27.437 27.437 18.292 64.020 27.437 100.604 27.437 36.582 0 64.020-9.145 91.457-18.292 100.604 27.437 164.624 82.312 164.624 128.042h-731.663c9.147-45.73 82.314-100.604 182.916-128.042z" />
<glyph unicode="&#xe901;" glyph-name="retail" d="M218.453 99.84c13.653 211.627 27.307 423.253 34.133 634.88 47.787 0 95.573 0 143.36 0 0 27.307 0 54.613 6.827 75.093 6.827 47.787 40.96 88.747 95.573 95.573 47.787 6.827 95.573-13.653 116.053-61.44 6.827-20.48 13.653-40.96 13.653-61.44 0-13.653 0-34.133 0-54.613 47.787 0 102.4 0 150.187 0 6.827-211.627 20.48-423.253 27.307-634.88-197.973 6.827-389.12 6.827-587.093 6.827zM600.747 734.72c0 27.307 0 47.787 0 68.267 0 40.96-40.96 75.093-81.92 81.92-40.96 0-81.92-27.307-88.747-68.267 0-27.307 0-47.787 0-75.093 54.613-6.827 109.227-6.827 170.667-6.827z" />
<glyph unicode="&#xe902;" glyph-name="petfriendly" d="M563.084 647.298c-21.449-76.214-80.026-126.407-130.835-112.108s-74.611 87.675-53.163 163.889c21.449 76.214 80.026 126.407 130.835 112.108s74.611-87.675 53.163-163.889zM339.913 600.253c2.018-67.838-39.119-124.103-91.881-125.673s-97.171 52.151-99.189 119.989c-2.018 67.838 39.119 124.103 91.881 125.673s97.171-52.151 99.189-119.989zM753.364 702.531c44.998-27.59 47.927-104.673 6.542-172.171s-111.412-99.848-156.411-72.258c-44.998 27.59-47.927 104.673-6.542 172.171s111.412 99.848 156.411 72.258zM714.676 444.191c51.156 44.594 120.744 48.49 155.428 8.701s21.331-108.194-29.826-152.788c-51.156-44.594-120.744-48.49-155.428-8.701s-21.331 108.194 29.826 152.788zM498.347 454.827c-95.573 40.96-232.107-13.653-314.027-129.707-75.093-116.053 116.053-40.96 197.973-81.92s191.147-238.933 232.107-102.4c34.133 136.533-20.48 273.067-116.053 314.027z" />
<glyph unicode="&#xe903;" glyph-name="restaurants_cafes" d="M621.227 441.173c-27.307-27.307-54.613-61.44-75.093-88.747-81.92-88.747-157.013-184.32-238.933-273.067-40.96-47.787-116.053-34.133-136.533 20.48-13.653 34.133-6.827 68.267 20.48 95.573 116.053 102.4 232.107 204.8 348.16 307.2 6.827 6.827 6.827 6.827 13.653 13.653l-6.827 6.827c-34.133 34.133-40.96 88.747-20.48 122.88 6.827 13.653 13.653 27.307 27.307 34.133 61.44 47.787 122.88 88.747 191.147 136.533 13.653 6.827 20.48 6.827 27.307 0 13.653-6.827 13.653-20.48 0-34.133-34.133-34.133-61.44-75.093-95.573-109.227-13.653-13.653-27.307-34.133-40.96-47.787-6.827-6.827-6.827-20.48 0-27.307s20.48-6.827 27.307 0c47.787 47.787 102.4 95.573 150.187 143.36 6.827 6.827 20.48 6.827 27.307 6.827 13.653-6.827 13.653-13.653 13.653-27.307 0-6.827-6.827-6.827-6.827-13.653-47.787-47.787-95.573-102.4-136.533-150.187-13.653-13.653-6.827-27.307 6.827-34.133 6.827 0 13.653 0 20.48 6.827 47.787 40.96 88.747 81.92 136.533 122.88 6.827 6.827 13.653 13.653 20.48 13.653 13.653 6.827 20.48 6.827 34.133 0s13.653-20.48 6.827-34.133c-34.133-54.613-75.093-102.4-109.227-157.013-6.827-6.827-13.653-20.48-20.48-27.307-34.133-47.787-88.747-61.44-136.533-34.133-27.307 13.653-40.96 20.48-47.787 27.307zM464.213 502.613c-27.307-20.48-47.787-40.96-68.267-61.44-13.653-13.653-27.307-13.653-47.787-6.827-54.613 27.307-109.227 54.613-157.013 102.4s-75.093 102.4-88.747 170.667c-6.827 27.307-6.827 47.787-6.827 75.093 0 13.653 0 27.307 13.653 40.96 6.827 6.827 13.653 6.827 27.307 0 6.827-6.827 20.48-13.653 27.307-20.48 54.613-54.613 109.227-102.4 157.013-157.013 40.96-40.96 81.92-81.92 129.707-122.88 6.827-13.653 13.653-13.653 13.653-20.48zM518.827 256.853c27.307 34.133 61.44 68.267 88.747 102.4 13.653-13.653 34.133-34.133 47.787-47.787 40.96-40.96 81.92-81.92 122.88-116.053 27.307-27.307 34.133-61.44 20.48-95.573s-47.787-54.613-81.92-54.613c-27.307 0-47.787 6.827-61.44 34.133-40.96 54.613-88.747 109.227-136.533 177.493 6.827-6.827 0 0 0 0z" />
<glyph unicode="&#xe904;" glyph-name="kids" d="M512 802.987c-191.147 0-348.16-157.013-348.16-348.16s157.013-348.16 348.16-348.16c191.147 0 348.16 157.013 348.16 348.16s-150.187 348.16-348.16 348.16v0zM382.293 256.853c-27.307 20.48-88.747 75.093-88.747 116.053 0 13.653 6.827 20.48 20.48 20.48h395.947c13.653 0 20.48-6.827 20.48-20.48 0-40.96-54.613-95.573-88.747-116.053-34.133-27.307-81.92-40.96-129.707-40.96s-88.747 13.653-129.707 40.96v0zM641.707 632.32c27.307 0 54.613-27.307 54.613-54.613s-27.307-54.613-54.613-54.613-54.613 27.307-54.613 54.613c6.827 27.307 27.307 54.613 54.613 54.613v0zM382.293 632.32c27.307 0 54.613-27.307 54.613-54.613s-27.307-54.613-54.613-54.613-54.613 27.307-54.613 54.613 27.307 54.613 54.613 54.613z" />
<glyph unicode="&#xe905;" glyph-name="fitness_centre" d="M907.947 529.92v0l-6.827 47.787c0 13.653-13.653 27.307-27.307 27.307h-6.827c-13.653 0-27.307-13.653-27.307-27.307v-157.013c0-13.653 13.653-27.307 27.307-27.307h6.827c13.653 0 27.307 13.653 27.307 27.307v47.787h6.827c13.653 0 27.307 13.653 27.307 27.307v6.827c-6.827 13.653-13.653 27.307-27.307 27.307zM157.013 605.013v0c-20.48 0-34.133-13.653-34.133-27.307v-47.787h-6.827c-13.653 0-27.307-13.653-27.307-27.307v-6.827c0-13.653 13.653-27.307 27.307-27.307h6.827v-47.787c0-13.653 13.653-27.307 27.307-27.307h6.827c13.653 0 27.307 13.653 27.307 27.307v157.013c0 13.653-13.653 27.307-27.307 27.307zM791.893 645.973h-61.44c-20.48 0-40.96-20.48-40.96-40.96v-81.92h-361.813v88.747c0 20.48-20.48 40.96-40.96 40.96h-61.44c-20.48 0-40.96-20.48-40.96-40.96v-225.28c0-20.48 20.48-40.96 40.96-40.96h61.44c20.48 0 40.96 20.48 40.96 40.96v81.92h361.813v-81.92c0-20.48 20.48-40.96 40.96-40.96h61.44c20.48 0 40.96 20.48 40.96 40.96v225.28c-6.827 20.48-20.48 34.133-40.96 34.133z" />
<glyph unicode="&#xe906;" glyph-name="business_centre" d="M894.293 605.013c0-102.4 0-204.8 0-307.2v0c-6.827-27.307-27.307-40.96-54.613-40.96s-54.613 0-81.92 0c-6.827 0-6.827 0-6.827-6.827 0-40.96 0-75.093 0-116.053 0-6.827 0-20.48 0-27.307 0-13.653-6.827-20.48-13.653-27.307s-13.653-6.827-20.48-13.653c-136.533 0-266.24 0-402.773 0v0c-27.307 6.827-40.96 27.307-40.96 54.613 0 40.96 0 88.747 0 129.707v6.827h-6.827c-27.307 0-61.44 0-88.747 0-13.653 0-27.307 6.827-34.133 13.653s-13.653 20.48-13.653 27.307c0 102.4 0 204.8 0 307.2 0 6.827 6.827 13.653 6.827 20.48 6.827 13.653 27.307 20.48 40.96 20.48 225.28 0 450.56 0 669.013 0h6.827c13.653 0 20.48-6.827 27.307-13.653 6.827-13.653 6.827-20.48 13.653-27.307zM696.32 400.213c-129.707 0-259.413 0-389.12 0 0-95.573 0-191.147 0-293.547 129.707 0 259.413 0 389.12 0 0 102.4 0 197.973 0 293.547zM750.933 550.4c0-27.307 20.48-47.787 47.787-47.787s47.787 20.48 47.787 47.787-20.48 47.787-47.787 47.787-47.787-27.307-47.787-47.787zM709.973 837.12c6.827 0 13.653-6.827 20.48-6.827 13.653-6.827 20.48-20.48 20.48-40.96 0-27.307 0-54.613 0-88.747v-6.827c-13.653 0-34.133 0-47.787 0 0 34.133 0 61.44 0 95.573-129.707 0-259.413 0-389.12 0 0-34.133 0-61.44 0-95.573-13.653 0-34.133 0-47.787 0v6.827c0 27.307 0 54.613 0 81.92s13.653 40.96 40.96 54.613v0c129.707 0 266.24 0 402.773 0zM361.813 304.64c0 13.653 0 34.133 0 47.787 95.573 0 191.147 0 286.72 0 0-13.653 0-34.133 0-47.787-95.573 0-191.147 0-286.72 0zM361.813 209.067c0 13.653 0 34.133 0 47.787 81.92 0 163.84 0 238.933 0 0-13.653 0-34.133 0-47.787-81.92 0-157.013 0-238.933 0z" />
<glyph unicode="&#xe907;" glyph-name="meeting_room" d="M27.307 516.267c34.133 47.787 68.267 95.573 102.4 143.36 34.133 54.613 116.053 61.44 163.84 0 27.307-34.133 47.787-68.267 75.093-102.4 6.827-6.827 13.653-6.827 20.48-13.653 34.133-6.827 68.267-13.653 102.4-20.48 20.48-6.827 34.133-20.48 27.307-40.96 0-20.48-20.48-34.133-40.96-27.307-34.133 6.827-68.267 13.653-102.4 20.48-6.827 0-13.653 0-27.307 6.827-13.653 0-20.48 6.827-27.307 13.653-6.827 13.653-13.653 20.48-27.307 34.133 0-13.653 0-27.307 6.827-34.133 6.827-54.613 6.827-109.227 6.827-170.667 0-75.093 0-157.013 0-232.107 0-20.48-6.827-34.133-27.307-40.96-27.307-6.827-47.787 6.827-47.787 34.133 0 20.48 0 40.96 0 61.44 0 61.44 0 122.88 0 184.32v0l-6.827 6.827-6.827-6.827c0-20.48-6.827-47.787-6.827-68.267-6.827-47.787-13.653-88.747-13.653-136.533 0-13.653-6.827-34.133-6.827-47.787 0-20.48-20.48-34.133-40.96-27.307-20.48 0-34.133 20.48-34.133 40.96 6.827 47.787 13.653 95.573 13.653 143.36 6.827 47.787 13.653 95.573 13.653 150.187 0 0 0 6.827-6.827 6.827-34.133 20.48-61.44 47.787-95.573 68.267-6.827 6.827-20.48 13.653-27.307 20.48 13.653 13.653 13.653 34.133 13.653 34.133zM143.36 550.4c-6.827 0-6.827 0 0 0-13.653-13.653-20.48-27.307-34.133-40.96 13.653-6.827 27.307-20.48 40.96-27.307-6.827 34.133-6.827 54.613-6.827 68.267zM129.707 809.813c0 47.787 40.96 88.747 88.747 88.747s88.747-40.96 88.747-88.747-40.96-88.747-88.747-88.747c-54.613 0-88.747 34.133-88.747 88.747zM641.707 932.693c13.653-6.827 13.653-13.653 13.653-27.307s0-20.48 0-34.133c6.827 0 13.653 0 27.307 0 20.48 0 20.48 0 27.307-20.48h6.827c54.613 0 116.053 0 170.667 0 6.827 0 6.827 0 13.653 0s13.653-6.827 13.653-13.653c0-150.187 0-300.373 0-443.733 0-6.827-6.827-13.653-20.48-13.653-20.48 0-34.133 0-54.613 0-6.827 0-6.827 0-13.653 0 0-20.48-20.48-27.307-34.133-20.48 6.827-20.48 6.827-34.133 13.653-54.613 20.48-75.093 40.96-150.187 61.44-225.28 0-6.827 0-20.48-6.827-27.307s-13.653-6.827-20.48 0c-6.827 6.827-13.653 6.827-13.653 13.653-13.653 61.44-34.133 122.88-47.787 184.32-6.827 34.133-20.48 68.267-27.307 102.4l-6.827 6.827c-27.307 0-61.44 0-88.747 0 0-6.827 0-6.827 0-13.653 0-88.747 0-177.493 0-266.24 0-6.827 0-6.827 0-13.653 0-13.653-6.827-20.48-20.48-20.48s-20.48 6.827-20.48 20.48c0 34.133 0 75.093 0 109.227 0 54.613 0 109.227 0 163.84 0 6.827 0 6.827 0 13.653-6.827 0-6.827 0-13.653 0-20.48 0-47.787 0-68.267 0-6.827 0-13.653 0-13.653-13.653-20.48-95.573-47.787-184.32-75.093-279.893 0-13.653-13.653-20.48-20.48-20.48s-20.48 6.827-20.48 13.653 0 6.827 0 13.653c20.48 88.747 47.787 177.493 68.267 266.24v13.653c-13.653 0-27.307 6.827-27.307 20.48-20.48 0-47.787 0-68.267 0s-27.307 6.827-27.307 27.307c0 20.48 0 34.133 0 54.613v0c13.653 0 27.307-6.827 34.133-6.827 0 0 0-6.827 6.827-6.827 0-6.827 0-13.653 0-27.307 157.013 0 320.853 0 477.867 0 0 129.707 0 266.24 0 395.947-157.013 0-314.027 0-477.867 0 0-68.267 0-136.533 0-204.8v0c-6.827 6.827-6.827 13.653-13.653 20.48-20.48 20.48-27.307 47.787-27.307 75.093 0 40.96 0 88.747 0 129.707 0 13.653 6.827 20.48 20.48 20.48 54.613 0 116.053 0 170.667 0 6.827 0 6.827 0 6.827 0 6.827 20.48 13.653 20.48 27.307 20.48 6.827 0 13.653 0 27.307 0 0 13.653 0 27.307 0 34.133 0 13.653 6.827 20.48 13.653 27.307 20.48 6.827 27.307 6.827 27.307 6.827zM682.667 536.747c-20.48 0-34.133 13.653-34.133 34.133 0 6.827 0 6.827-6.827 13.653-20.48 20.48-40.96 40.96-68.267 61.44h-6.827c-13.653 0-20.48-6.827-27.307-13.653-6.827-13.653-20.48-27.307-27.307-40.96-6.827-6.827-13.653-13.653-20.48-6.827s-6.827 13.653 0 20.48c13.653 20.48 27.307 34.133 40.96 47.787 0 6.827 6.827 6.827 0 13.653-6.827 13.653 0 27.307 13.653 34.133s27.307 6.827 34.133 0c13.653-6.827 20.48-20.48 13.653-34.133v-6.827c20.48-20.48 40.96-40.96 61.44-61.44 6.827-6.827 20.48-6.827 27.307 0 20.48 34.133 40.96 61.44 68.267 95.573 0 6.827 0 6.827 0 13.653-6.827 20.48 6.827 40.96 27.307 40.96 20.48 6.827 34.133-6.827 40.96-27.307 0-20.48-13.653-34.133-34.133-34.133-6.827 0-6.827 0-13.653-6.827-20.48-27.307-40.96-61.44-61.44-88.747 0-6.827-6.827-6.827 0-13.653 6.827-27.307-6.827-40.96-27.307-40.96z" />
<glyph unicode="&#xe908;" glyph-name="outdoor_pool" d="M518.827 625.493c-40.96 0-75.093-20.48-88.747-61.44-27.307 47.787-61.44 61.44-102.4 61.44-61.44 0-88.747-20.48-102.4-54.613 6.827 157.013 136.533 293.547 314.027 293.547 170.667 0 300.373-143.36 300.373-293.547-20.48 47.787-61.44 54.613-102.4 54.613s-81.92-13.653-102.4-61.44c-13.653 40.96-47.787 54.613-88.747 61.44 0-6.827 0-13.653 0-20.48 0-68.267 0-129.707 0-197.973 0-20.48 0-20.48-20.48-34.133-6.827 88.747-6.827 170.667-6.827 252.587zM300.373 407.040c6.827 0 20.48-6.827 27.307-13.653 40.96-27.307 88.747-54.613 129.707-81.92 6.827-6.827 13.653-6.827 20.48 0 34.133 20.48 68.267 34.133 95.573 54.613 13.653 6.827 27.307 6.827 40.96 0 47.787-34.133 95.573-68.267 143.36-102.4 20.48-13.653 20.48-34.133 6.827-47.787s-27.307-20.48-47.787-6.827c-34.133 27.307-75.093 47.787-109.227 75.093-6.827 6.827-13.653 6.827-20.48 0-40.96-27.307-88.747-54.613-129.707-75.093-20.48-13.653-40.96-13.653-61.44 0-47.787 27.307-95.573 61.44-143.36 88.747-20.48 13.653-34.133 40.96-20.48 61.44 13.653 27.307 40.96 47.787 68.267 47.787zM184.32 113.493c-6.827 6.827-20.48 13.653-27.307 20.48 27.307 27.307 61.44 54.613 88.747 81.92-54.613 34.133-102.4 68.267-157.013 95.573 13.653 13.653 20.48 27.307 27.307 40.96 47.787-27.307 88.747-54.613 136.533-88.747 47.787-27.307 95.573-61.44 136.533-88.747 6.827-6.827 13.653-6.827 20.48-6.827 143.36 0 279.893 0 423.253 0 6.827 0 6.827 0 13.653 0 0-20.48 0-34.133 0-54.613-6.827 0-6.827 0-13.653 0-143.36 0-286.72 0-430.080 0-6.827 0-13.653 0-20.48 6.827-34.133 20.48-68.267 40.96-102.4 61.44-6.827 6.827-13.653 6.827-20.48 0-20.48-20.48-47.787-47.787-75.093-68.267zM191.147 468.48c27.307 0 54.613-20.48 54.613-54.613 0-27.307-20.48-54.613-54.613-54.613-27.307 0-54.613 20.48-54.613 54.613 6.827 34.133 27.307 54.613 54.613 54.613z" />
<glyph unicode="&#xe909;" glyph-name="indoor_pool" d="M737.28 837.12c-102.4 0-184.32-81.92-184.32-184.32v-13.653h-232.107v6.827c0 68.267 54.613 129.707 129.707 129.707 27.307 0 54.613-6.827 75.093-27.307 6.827 20.48 20.48 34.133 34.133 47.787-27.307 20.48-68.267 34.133-109.227 34.133-102.4 0-184.32-81.92-184.32-184.32v-314.027h61.44v68.267h232.107v-68.267h61.44v314.027c0 68.267 54.613 129.707 129.707 129.707 68.267 0 129.707-54.613 129.707-129.707 0-13.653 13.653-27.307 27.307-27.307s27.307 13.653 27.307 27.307c-13.653 109.227-95.573 191.147-197.973 191.147zM546.133 468.48h-225.28v109.227h232.107v-109.227h-6.827zM819.2 58.88c-20.48 0-40.96 6.827-61.44 20.48-13.653 6.827-34.133 13.653-47.787 13.653s-27.307-6.827-47.787-13.653c-20.48-6.827-40.96-20.48-61.44-20.48s-40.96 6.827-61.44 20.48c-13.653 6.827-34.133 13.653-47.787 13.653s-27.307-6.827-47.787-13.653c-20.48-6.827-40.96-20.48-61.44-20.48s-40.96 6.827-61.44 20.48c-13.653 6.827-34.133 13.653-47.787 13.653s-27.307-6.827-47.787-13.653c-20.48-6.827-40.96-20.48-61.44-20.48s-40.96 6.827-61.44 20.48c-13.653 6.827-34.133 13.653-47.787 13.653v61.44c27.307 0 47.787-13.653 68.267-20.48 13.653-6.827 27.307-13.653 34.133-13.653s27.307 6.827 34.133 13.653c20.48 6.827 47.787 20.48 68.267 20.48 27.307 0 47.787-13.653 68.267-20.48 13.653-6.827 27.307-13.653 34.133-13.653s27.307 6.827 40.96 13.653c20.48 6.827 47.787 20.48 75.093 20.48s47.787-13.653 75.093-20.48c13.653-6.827 27.307-13.653 40.96-13.653 6.827 0 27.307 6.827 34.133 13.653 20.48 6.827 47.787 20.48 68.267 20.48 27.307 0 47.787-13.653 68.267-20.48 13.653-6.827 27.307-13.653 34.133-13.653s27.307 6.827 34.133 13.653c20.48 6.827 47.787 20.48 68.267 20.48v-61.44c-13.653 0-27.307-6.827-47.787-13.653 6.827-6.827-13.653-20.48-34.133-20.48zM819.2 195.413c-20.48 0-40.96 6.827-61.44 20.48-13.653 6.827-34.133 13.653-47.787 13.653s-27.307-6.827-47.787-13.653c-20.48-6.827-40.96-20.48-61.44-20.48s-40.96 6.827-61.44 20.48c-13.653 6.827-34.133 13.653-47.787 13.653s-27.307-6.827-47.787-13.653c-20.48-6.827-40.96-20.48-61.44-20.48s-40.96 6.827-61.44 20.48c-13.653 6.827-34.133 13.653-47.787 13.653s-27.307-6.827-47.787-13.653c-20.48-6.827-40.96-20.48-61.44-20.48s-40.96 6.827-61.44 20.48c-13.653 6.827-34.133 13.653-47.787 13.653v68.267c27.307 0 47.787-13.653 68.267-20.48 13.653-6.827 27.307-13.653 34.133-13.653s27.307 6.827 34.133 13.653c20.48 6.827 47.787 20.48 68.267 20.48 27.307 0 47.787-13.653 68.267-20.48 13.653-6.827 27.307-13.653 34.133-13.653s27.307 6.827 40.96 13.653c20.48 6.827 47.787 20.48 75.093 20.48s47.787-13.653 75.093-20.48c13.653-6.827 27.307-13.653 40.96-13.653 6.827 0 27.307 6.827 34.133 13.653 20.48 6.827 47.787 20.48 68.267 20.48 27.307 0 47.787-13.653 68.267-20.48 13.653-6.827 27.307-13.653 34.133-13.653s27.307 6.827 34.133 13.653c20.48 6.827 47.787 20.48 68.267 20.48v-61.44c-13.653 0-27.307-6.827-47.787-13.653 6.827-13.653-13.653-27.307-34.133-27.307z" />
<glyph unicode="&#xe90a;" glyph-name="sauna" d="M314.027 181.76l34.133 34.133c0 0-95.573 27.307-122.88 81.92-13.653 34.133-6.827 68.267 34.133 109.227 20.48 20.48 40.96 40.96 61.44 54.613 129.707 116.053 252.587 225.28 6.827 327.68l-40.96-34.133c184.32-68.267 116.053-143.36-27.307-273.067-20.48-20.48-40.96-40.96-61.44-61.44-47.787-47.787-68.267-95.573-40.96-136.533 40.96-68.267 150.187-102.4 157.013-102.4zM477.867 482.133c-20.48-20.48-40.96-40.96-61.44-61.44-47.787-47.787-68.267-95.573-40.96-136.533 34.133-68.267 150.187-102.4 157.013-102.4l34.133 34.133c0 0-95.573 27.307-122.88 81.92-13.653 34.133-6.827 68.267 34.133 109.227 20.48 20.48 40.96 40.96 61.44 54.613 129.707 116.053 252.587 225.28 6.827 327.68l-40.96-34.133c184.32-68.267 116.053-136.533-27.307-273.067zM689.493 482.133c-20.48-20.48-40.96-40.96-61.44-61.44-47.787-47.787-68.267-95.573-40.96-136.533 34.133-68.267 150.187-102.4 157.013-102.4l34.133 34.133c0 0-95.573 27.307-122.88 81.92-13.653 34.133-6.827 68.267 34.133 109.227 20.48 20.48 40.96 40.96 61.44 54.613 129.707 116.053 252.587 225.28 6.827 327.68l-40.96-34.133c184.32-68.267 116.053-136.533-27.307-273.067z" />
<glyph unicode="&#xe90b;" glyph-name="spa" d="M689.493 625.493c170.667 122.88-191.147 300.373-191.147 88.747 0 204.8-361.813 34.133-191.147-88.747-170.667 122.88-259.413-266.24-47.787-204.8-211.627-61.44 34.133-368.64 129.707-163.84-95.573-204.8 307.2-204.8 211.627 0 95.573-204.8 341.333 102.4 129.707 163.84 218.453-61.44 129.707 327.68-40.96 204.8zM498.347 325.12c-68.267 0-129.707 54.613-129.707 129.707s54.613 129.707 129.707 129.707c68.267 0 129.707-54.613 129.707-129.707s-61.44-129.707-129.707-129.707z" />
<glyph unicode="&#xe90c;" glyph-name="room_service" d="M464.213 878.080c-95.573 0-170.667-75.093-170.667-170.667 0-20.48 20.48-40.96 40.96-40.96s40.96 20.48 40.96 40.96c0 47.787 40.96 95.573 95.573 95.573 47.787 0 95.573-40.96 95.573-95.573 0-88.747-116.053-163.84-245.76-232.107-27.307-6.827-34.133-27.307-27.307-47.787v-368.64c0-34.133 27.307-54.613 54.613-54.613h232.107c34.133 0 54.613 27.307 54.613 54.613v641.707c0 0 0 0 0 6.827 0 88.747-75.093 170.667-170.667 170.667zM464.213 93.013c-54.613 0-95.573 40.96-95.573 95.573s40.96 95.573 95.573 95.573c54.613 0 95.573-40.96 95.573-95.573s-40.96-95.573-95.573-95.573z" />
<glyph unicode="&#xe90d;" glyph-name="safety_deposit_box" d="M375.467 550.4h245.76v81.92c0 34.133-13.653 61.44-34.133 88.747-27.307 20.48-54.613 34.133-88.747 34.133s-61.44-13.653-88.747-34.133c-20.48-20.48-34.133-54.613-34.133-88.747v-81.92zM498.347 427.52c-27.307 0-47.787-20.48-47.787-47.787 0-20.48 13.653-40.96 27.307-47.787v-34.133c0-13.653 6.827-20.48 20.48-20.48s20.48 6.827 20.48 20.48v34.133c20.48 6.827 27.307 27.307 27.307 47.787 0 27.307-20.48 47.787-47.787 47.787v0zM682.667 550.4v0c34.133 0 61.44-27.307 61.44-61.44v-266.24c0-34.133-27.307-61.44-61.44-61.44h-368.64c-34.133 0-61.44 27.307-61.44 61.44v266.24c0 34.133 27.307 61.44 61.44 61.44v81.92c0 47.787 20.48 95.573 54.613 129.707s81.92 54.613 129.707 54.613c47.787 0 95.573-20.48 129.707-54.613s54.613-81.92 54.613-129.707v-81.92z" />
<glyph unicode="&#xe90e;" glyph-name="laundry" d="M505.173 229.547c81.92 0 143.36 61.44 143.36 143.36s-61.44 143.36-143.36 143.36c-81.92 0-143.36-61.44-143.36-143.36s61.44-143.36 143.36-143.36zM505.173 475.307c54.613 0 102.4-47.787 102.4-102.4s-47.787-102.4-102.4-102.4-102.4 47.787-102.4 102.4c0 54.613 40.96 102.4 102.4 102.4zM785.067 802.987h-559.787c-13.653 0-27.307-13.653-27.307-27.307v-47.787h621.227v40.96c-6.827 20.48-13.653 34.133-34.133 34.133zM197.973 120.32c0-13.653 13.653-27.307 27.307-27.307h559.787c13.653 0 27.307 13.653 27.307 27.307v580.267h-614.4v-580.267zM757.76 673.28c13.653 0 20.48-6.827 20.48-20.48s-6.827-20.48-20.48-20.48c-13.653 0-20.48 6.827-20.48 20.48s6.827 20.48 20.48 20.48zM696.32 673.28c13.653 0 20.48-6.827 20.48-20.48s-6.827-20.48-20.48-20.48c-13.653 0-20.48 6.827-20.48 20.48-6.827 13.653 6.827 20.48 20.48 20.48zM634.88 673.28c13.653 0 20.48-6.827 20.48-20.48s-6.827-20.48-20.48-20.48-20.48 6.827-20.48 20.48c-6.827 13.653 6.827 20.48 20.48 20.48zM505.173 557.227c95.573 0 170.667-68.267 184.32-157.013h27.307v-54.613h-27.307c-13.653-88.747-88.747-157.013-184.32-157.013-102.4 0-184.32 81.92-184.32 184.32s81.92 184.32 184.32 184.32zM225.28 666.453c0 6.827 6.827 6.827 6.827 6.827h88.747c6.827 0 6.827-6.827 6.827-6.827v-54.613c0-6.827-6.827-6.827-6.827-6.827h-88.747c-6.827 0-6.827 6.827-6.827 6.827v54.613z" />
<glyph unicode="&#xe90f;" glyph-name="wheelchair" d="M839.68 181.76c-6.827-20.48-27.307-34.133-54.613-34.133s-54.613 0-75.093 0c-13.653 0-20.48 6.827-20.48 13.653-13.653 40.96-34.133 81.92-47.787 116.053-6.827 13.653-6.827 13.653-20.48 13.653-54.613 0-109.227 0-170.667 0-47.787 0-81.92 34.133-88.747 75.093 0 81.92 0 163.84 0 245.76 0 47.787 40.96 68.267 75.093 54.613 13.653-6.827 34.133-20.48 40.96-40.96 13.653-20.48 13.653-47.787 27.307-75.093 40.96 0 81.92 0 129.707 0 20.48 0 34.133-6.827 40.96-27.307s-6.827-40.96-34.133-40.96c-40.96 0-75.093 0-116.053 0-6.827 0-6.827 0-13.653 0 0-34.133 0-68.267 0-102.4 20.48 0 47.787 0 75.093 0 20.48 0 47.787 0 68.267 0 27.307 0 40.96-6.827 47.787-34.133 13.653-34.133 27.307-75.093 40.96-109.227 6.827-13.653 13.653-20.48 27.307-20.48 6.827 0 20.48 0 27.307 0 27.307 0 40.96-6.827 54.613-27.307-13.653 6.827-13.653 0-13.653-6.827zM395.947 52.053c-13.653 0-20.48 6.827-34.133 6.827-102.4 27.307-177.493 109.227-191.147 218.453-13.653 95.573 47.787 204.8 136.533 245.76 6.827 0 13.653 6.827 20.48 6.827 0-20.48 0-34.133 0-47.787 0-6.827-6.827-13.653-13.653-20.48-68.267-54.613-102.4-116.053-81.92-204.8 13.653-81.92 68.267-129.707 150.187-157.013 88.747-20.48 184.32 20.48 225.28 109.227 0 6.827 6.827 13.653 13.653 20.48 6.827-20.48 20.48-40.96 20.48-61.44 0-6.827 0-13.653-6.827-20.48-40.96-61.44-95.573-95.573-163.84-109.227-6.827 0-6.827 0-13.653-6.827-20.48 20.48-40.96 20.48-61.44 20.48zM505.173 782.507c0-47.787-34.133-81.92-81.92-81.92s-81.92 34.133-81.92 81.92c0 47.787 34.133 81.92 81.92 81.92s81.92-34.133 81.92-81.92z" />
<glyph unicode="&#xe910;" glyph-name="free_parking" d="M880.64 625.493c34.133 20.48 13.653 40.96-6.827 40.96h-27.307c-13.653 34.133-34.133 61.44-61.44 88.747-34.133 40.96-81.92 68.267-136.533 68.267h-259.413c-54.613 0-95.573-27.307-136.533-68.267-20.48-27.307-40.96-61.44-61.44-88.747h-27.307c-20.48 0-34.133-13.653-34.133-34.133s13.653-34.133 34.133-34.133c-13.653-20.48-27.307-54.613-34.133-81.92-6.827-34.133-6.827-61.44-6.827-81.92s0-54.613 6.827-81.92c6.827-20.48 6.827-40.96 13.653-54.613v-102.4c0-27.307 20.48-47.787 47.787-47.787h47.787c27.307 0 47.787 20.48 47.787 47.787v75.093h436.907v-75.093c0-27.307 20.48-47.787 47.787-47.787h47.787c27.307 0 47.787 20.48 47.787 47.787v95.573c6.827 20.48 13.653 34.133 13.653 54.613 6.827 27.307 6.827 61.44 6.827 81.92s0 47.787-6.827 81.92c-6.827 27.307-13.653 54.613-34.133 81.92 20.48 0 34.133 20.48 34.133 34.133zM307.2 714.24c20.48 27.307 47.787 40.96 81.92 40.96h259.413c27.307 0 54.613-20.48 81.92-40.96 27.307-27.307 47.787-68.267 61.44-102.4-34.133 0-54.613-13.653-75.093-20.48h-395.947c-20.48 6.827-47.787 20.48-75.093 20.48 13.653 34.133 34.133 68.267 61.44 102.4zM348.16 420.693h-81.92c-34.133 0-54.613 20.48-54.613 47.787s27.307 47.787 54.613 47.787c54.613 0 102.4-40.96 109.227-68.267 0-6.827-13.653-27.307-27.307-27.307zM600.747 325.12h-170.667c-13.653 0-27.307 13.653-27.307 27.307 6.827 20.48 13.653 27.307 27.307 27.307h170.667c13.653 0 27.307-13.653 27.307-27.307s-13.653-27.307-27.307-27.307zM771.413 420.693h-81.92c-13.653 0-27.307 13.653-27.307 27.307 6.827 27.307 54.613 68.267 109.227 68.267 27.307 0 54.613-20.48 54.613-47.787s-20.48-47.787-54.613-47.787z" />
<glyph unicode="&#xe911;" glyph-name="valetparking" d="M832.853 400.213c-6.827 20.48-34.133 27.307-54.613 13.653l-143.36-95.573-6.827-6.827h-157.013c-6.827 0-13.653 6.827-13.653 13.653s6.827 13.653 13.653 13.653h129.707c20.48 0 40.96 20.48 40.96 40.96s-20.48 40.96-40.96 40.96h-273.067c-13.653 0-27.307-6.827-34.133-13.653l-116.053-116.053 143.36-143.36 54.613 54.613h252.587l197.973 150.187c13.653 6.827 20.48 34.133 6.827 47.787zM278.277 81.878l-177.442 179.766 34.010 33.57 177.442-179.766-34.010-33.57zM798.72 775.68c-20.48 6.827-27.307 13.653-34.133 13.653h-13.653c-6.827 20.48-20.48 34.133-34.133 47.787-20.48 20.48-40.96 34.133-75.093 34.133h-136.533c-27.307 0-54.613-13.653-75.093-34.133-13.653-13.653-20.48-34.133-34.133-47.787h-13.653c-13.653 0-20.48-6.827-20.48-20.48s6.827-20.48 20.48-20.48c-6.827-13.653-13.653-27.307-13.653-40.96s0-34.133 0-40.96c0-13.653 0-27.307 6.827-47.787 0-13.653 6.827-20.48 6.827-34.133v-54.613c0-13.653 13.653-27.307 27.307-27.307h27.307c13.653 0 27.307 13.653 27.307 27.307v40.96h232.107v-40.96c0-13.653 13.653-27.307 27.307-27.307h27.307c13.653 0 27.307 13.653 27.307 27.307v61.44c6.827 6.827 6.827 20.48 6.827 34.133s6.827 34.133 6.827 47.787c0 13.653 0 27.307 0 40.96s-6.827 27.307-13.653 40.96c13.653 0 20.48 6.827 20.48 20.48zM464.213 809.813c13.653 13.653 27.307 20.48 40.96 20.48h136.533c13.653 0 27.307-6.827 40.96-20.48s27.307-34.133 34.133-54.613c-13.653 0-27.307-6.827-40.96-13.653h-204.8c-13.653 6.827-27.307 13.653-40.96 13.653 6.827 20.48 20.48 40.96 34.133 54.613zM471.040 659.627h-40.96c-13.653 0-27.307 13.653-27.307 27.307s13.653 27.307 27.307 27.307c34.133 0 61.44-27.307 54.613-40.96 0-6.827-6.827-13.653-13.653-13.653zM621.227 611.84h-95.573c-6.827 0-13.653 6.827-13.653 13.653s6.827 13.653 13.653 13.653h95.573c6.827 0 13.653-6.827 13.653-13.653s-6.827-13.653-13.653-13.653zM703.147 659.627h-40.96c-6.827 0-13.653 6.827-13.653 13.653 0 13.653 27.307 40.96 54.613 40.96 13.653 0 27.307-13.653 27.307-27.307s-13.653-27.307-27.307-27.307z" />
<glyph unicode="&#xe912;" glyph-name="storage_room" d="M450.56 58.88c-47.787 27.307-61.44 81.92-34.133 129.707s81.92 61.44 129.707 34.133c47.787-27.307 61.44-81.92 34.133-129.707-20.48-47.787-81.92-61.44-129.707-34.133zM525.653 181.76c-20.48 13.653-54.613 6.827-68.267-20.48-13.653-20.48-6.827-54.613 20.48-68.267 20.48-13.653 54.613-6.827 68.267 20.48s0 54.613-20.48 68.267zM395.947 202.24c6.827 6.827 6.827 13.653 13.653 13.653l-273.067 157.013c-6.827 0-13.653 0-13.653-6.827l-6.827-13.653c0-6.827 0-13.653 6.827-13.653l266.24-150.187c0 0 0 6.827 6.827 13.653zM928.427 625.493l-6.827 13.653c0 6.827-6.827 6.827-13.653 6.827l-157.013-34.133c0 0-6.827 0-6.827-6.827l-204.8-348.16c6.827 0 13.653-6.827 20.48-6.827 6.827-6.827 13.653-6.827 13.653-13.653l197.973 341.333 143.36 40.96c6.827 0 13.653 6.827 13.653 6.827zM348.16 768.853c-6.827-6.827-13.653-13.653-27.307-6.827l-47.787 27.307c-6.827 6.827-13.653 13.653-6.827 27.307v0c6.827 6.827 13.653 13.653 27.307 6.827l47.787-27.307c6.827-13.653 13.653-20.48 6.827-27.307v0zM259.413 618.667c-6.827-6.827-13.653-13.653-27.307-6.827l-47.787 27.307c-6.827 6.827-13.653 13.653-6.827 27.307v0c6.827 6.827 13.653 13.653 27.307 6.827l47.787-27.307c13.653-6.827 13.653-20.48 6.827-27.307v0zM177.493 468.48c-6.827-6.827-13.653-13.653-27.307-6.827l-47.787 27.307c-6.827 6.827-13.653 13.653-6.827 27.307v0c6.827 6.827 13.653 13.653 27.307 6.827l47.787-27.307c6.827-6.827 13.653-20.48 6.827-27.307v0zM689.493 639.147l-320.853 184.32c-13.653 6.827-27.307 0-34.133-6.827l-40.96-68.267c-6.827-13.653 0-27.307 6.827-34.133l320.853-184.32c13.653-6.827 27.307 0 34.133 6.827l40.96 68.267c13.653 13.653 6.827 27.307-6.827 34.133zM641.707 584.533l-320.853 184.32 6.827 13.653 320.853-184.32-6.827-13.653zM607.573 488.96l-320.853 184.32c-13.653 6.827-27.307 0-34.133-6.827l-40.96-68.267c-6.827-13.653 0-27.307 6.827-34.133l320.853-184.32c13.653-6.827 27.307 0 34.133 6.827l40.96 68.267c6.827 13.653 0 27.307-6.827 34.133zM552.96 441.173l-320.853 184.32 6.827 13.653 320.853-184.32-6.827-13.653zM518.827 345.6l-320.853 184.32c-13.653 6.827-27.307 0-34.133-6.827l-13.653-27.307 320.853-184.32-6.827-13.653-320.853 184.32-13.653-27.307c-6.827-13.653 0-27.307 6.827-34.133l293.547-170.667c20.48 13.653 40.96 20.48 68.267 20.48l27.307 40.96c6.827 6.827 6.827 27.307-6.827 34.133z" />
<glyph unicode="&#xe913;" glyph-name="currency_exchange" d="M709.973 434.347l-34.133-225.28 218.453 47.787-47.787 47.787c40.96 61.44 54.613 136.533 34.133 211.627-27.307 95.573-102.4 163.84-191.147 184.32l-6.827-13.653c54.613-20.48 95.573-68.267 109.227-129.707s0-122.88-34.133-170.667l-47.787 47.787zM314.027 468.48l34.133 225.28-218.453-47.787 47.787-47.787c-40.96-61.44-54.613-136.533-34.133-211.627 27.307-95.573 102.4-163.84 191.147-184.32l6.827 13.653c-54.613 20.48-95.573 68.267-109.227 129.707s0 122.88 34.133 170.667l47.787-47.787zM546.133 482.133c-54.613 20.48-75.093 34.133-75.093 54.613s13.653 34.133 54.613 34.133c40.96 0 75.093-13.653 88.747-20.48l20.48 68.267c-20.48 6.827-47.787 13.653-88.747 13.653v54.613h-61.44v-61.44c-68.267-13.653-102.4-54.613-102.4-109.227 0-61.44 47.787-88.747 109.227-109.227 47.787-13.653 68.267-27.307 68.267-54.613s-27.307-40.96-61.44-40.96c-40.96 0-75.093 13.653-102.4 27.307l-20.48-68.267c20.48-13.653 61.44-27.307 102.4-27.307v-61.44h61.44v61.44c68.267 13.653 109.227 61.44 109.227 116.053 0 61.44-27.307 95.573-102.4 122.88z" />
<glyph unicode="&#xe914;" glyph-name="atm_onsite" d="M477.867 666.453c95.573 20.48 157.013 34.133 225.28-6.827l27.307 34.133c-81.92 54.613-163.84 40.96-259.413 13.653-95.573-20.48-204.8-47.787-341.333-13.653l-27.307 6.827v-314.027h47.787v259.413c129.707-27.307 245.76 0 327.68 20.48zM901.12 488.96c-34.133 27.307-75.093 40.96-122.88 40.96-40.96 0-88.747-13.653-136.533-20.48-61.44-13.653-122.88-27.307-204.8-27.307-47.787 0-88.747 6.827-129.707 13.653l-27.307 6.827v-327.68l20.48-6.827c47.787-13.653 95.573-13.653 143.36-13.653v0c81.92 0 150.187 13.653 211.627 27.307 47.787 13.653 88.747 20.48 129.707 20.48 34.133 0 68.267-6.827 95.573-27.307l34.133-27.307v341.333h-13.653zM512 195.413c-27.307 0-47.787-6.827-75.093-6.827v0c-13.653 0-27.307 0-40.96 0-6.827 34.133-40.96 75.093-75.093 88.747v102.4c40.96 0 68.267 20.48 81.92 54.613 13.653 0 27.307 0 34.133 0 27.307 0 54.613 0 81.92 6.827-34.133-34.133-61.44-88.747-61.44-143.36 6.827-54.613 20.48-88.747 54.613-102.4zM607.573 263.68v-27.307l-27.307-6.827v27.307c-20.48-6.827-34.133-6.827-40.96 0l6.827 34.133c13.653 0 27.307 0 40.96 0 13.653 6.827 27.307 13.653 27.307 20.48s-6.827 13.653-27.307 13.653c-27.307 0-47.787 6.827-47.787 34.133 0 20.48 13.653 47.787 40.96 61.44v20.48l27.307 6.827v-20.48c20.48 6.827 27.307 6.827 40.96 0l-13.653-27.307c-6.827 0-20.48 0-34.133 0-13.653-6.827-20.48-13.653-20.48-20.48s6.827-13.653 34.133-13.653c34.133 0 40.96-13.653 40.96-34.133-6.827-27.307-27.307-54.613-47.787-68.267zM860.16 284.16c-40.96 13.653-68.267-6.827-75.093-47.787h-6.827c-40.96 0-88.747-13.653-136.533-20.48h-6.827c47.787 34.133 81.92 95.573 81.92 157.013 0 40.96-13.653 75.093-40.96 88.747 34.133 6.827 68.267 13.653 102.4 13.653 6.827 0 13.653 0 20.48 0 6.827-34.133 34.133-68.267 68.267-95.573v-95.573h-6.827zM559.787 557.227c88.747 20.48 157.013 34.133 225.28-6.827l27.307 34.133c-81.92 54.613-163.84 40.96-259.413 13.653-95.573-20.48-197.973-47.787-334.507-13.653l-27.307 6.827v-314.027h47.787v259.413c136.533-20.48 238.933 0 320.853 20.48z" />
<glyph unicode="&#xe915;" glyph-name="concierge_service" d="M853.333 290.987h-682.667c-27.307 0-54.613-27.307-54.613-54.613s27.307-54.613 54.613-54.613h682.667c27.307 0 54.613 27.307 54.613 54.613 0 40.96-27.307 54.613-54.613 54.613zM354.987 209.067h-184.32c-6.827 0-13.653 13.653-13.653 20.48 0 13.653 6.827 20.48 13.653 20.48h184.32c6.827 0 13.653-13.653 13.653-20.48s0-20.48-13.653-20.48zM552.96 625.493c13.653 13.653 20.48 27.307 20.48 47.787 0 34.133-27.307 61.44-61.44 61.44s-61.44-27.307-61.44-61.44c0-20.48 6.827-34.133 20.48-47.787-163.84-20.48-293.547-143.36-314.027-300.373h709.973c-20.48 157.013-150.187 286.72-314.027 300.373zM279.893 345.6h-54.613c20.48 136.533 136.533 245.76 286.72 245.76-122.88-34.133-211.627-122.88-232.107-245.76z" />
<glyph unicode="&#xe916;" glyph-name="baggage_storage" d="M682.667 448h-75.093v13.653c0 40.96-34.133 81.92-81.92 81.92h-109.227c-40.96 0-81.92-34.133-81.92-81.92v-6.827h-75.093c-34.133 0-54.613-27.307-54.613-54.613v-273.067c0-27.307 20.48-54.613 47.787-54.613 0 0 0 0 0-6.827s6.827-13.653 13.653-13.653h27.307c6.827 0 13.653 6.827 13.653 13.653 0 0 0 0 0 6.827h320.853c0 0 0 0 0-6.827s6.827-13.653 13.653-13.653h27.307c6.827 0 13.653 6.827 13.653 13.653v6.827c27.307 0 47.787 27.307 47.787 54.613v273.067c6.827 27.307-13.653 47.787-47.787 47.787zM634.88 434.347h27.307v-341.333h-27.307v341.333zM382.293 461.653c0 20.48 13.653 34.133 34.133 34.133h109.227c20.48 0 34.133-13.653 34.133-34.133v-6.827h-177.493v6.827zM279.893 434.347h27.307v-341.333h-27.307v341.333zM204.8 659.627v0 20.48c0 13.653 0 27.307 6.827 40.96s13.653 27.307 20.48 34.133c6.827 13.653 20.48 20.48 34.133 27.307 20.48 13.653 34.133 13.653 54.613 13.653s40.96-6.827 54.613-13.653c20.48-6.827 34.133-27.307 40.96-40.96h232.107l40.96-40.96c0 0 0 0 0-6.827v0c0-6.827 0-6.827 0-6.827l-47.787-54.613-27.307 27.307-27.307-27.307-27.307 27.307-27.307-27.307-27.307 27.307-34.133-34.133h-47.787c-13.653-20.48-27.307-34.133-40.96-40.96-20.48-13.653-40.96-13.653-61.44-13.653-13.653 0-27.307 0-40.96 6.827-13.653 0-20.48 6.827-34.133 13.653-6.827 13.653-20.48 20.48-27.307 34.133-6.827 6.827-6.827 20.48-13.653 34.133zM238.933 686.933c0-6.827 0-13.653 6.827-20.48s13.653-13.653 27.307-13.653c6.827 0 13.653 0 20.48 6.827s6.827 13.653 6.827 27.307c0 6.827 0 13.653-6.827 20.48-6.827 0-13.653 6.827-20.48 6.827s-13.653 0-20.48-6.827c-6.827-6.827-13.653-13.653-13.653-20.48z" />
<glyph unicode="&#xe917;" glyph-name="tourdesk" d="M375.467 762.027c0-45.243-36.677-81.92-81.92-81.92s-81.92 36.677-81.92 81.92c0 45.243 36.677 81.92 81.92 81.92s81.92-36.677 81.92-81.92zM191.147 488.96c0 13.653 6.827 27.307 6.827 40.96 0 6.827 6.827 13.653 6.827 13.653v-61.44h177.493v61.44c0-6.827 6.827-6.827 6.827-13.653 0-13.653 6.827-27.307 6.827-47.787v0h61.44v6.827c0 20.48-6.827 34.133-6.827 54.613-6.827 20.48-13.653 40.96-27.307 54.613-6.827 13.653-20.48 20.48-34.133 27.307s-34.133 13.653-40.96 13.653h-6.827c-6.827 0-6.827 0-13.653 0h-61.44c-6.827 0-6.827 0-13.653 0s-20.48-6.827-40.96-13.653c-13.653-6.827-27.307-13.653-40.96-27.307s-20.48-34.133-27.307-54.613c-6.827-13.653-6.827-34.133-6.827-54.613v-6.827h61.44c-6.827 6.827-6.827 6.827-6.827 6.827zM573.44 461.653h-436.907c-6.827 0-13.653-6.827-13.653-13.653s6.827-13.653 13.653-13.653h436.907c6.827 0 13.653 6.827 13.653 13.653s-6.827 13.653-13.653 13.653zM791.893 762.027c0-45.243-36.677-81.92-81.92-81.92s-81.92 36.677-81.92 81.92c0 45.243 36.677 81.92 81.92 81.92s81.92-36.677 81.92-81.92zM887.467 441.173c0 20.48-6.827 40.96-6.827 54.613 0 20.48-6.827 40.96-6.827 54.613-6.827 27.307-13.653 40.96-27.307 54.613-6.827 13.653-20.48 20.48-34.133 27.307s-34.133 13.653-40.96 13.653h-6.827c-6.827 0-6.827 0-13.653 0h-61.44c-27.307 0-40.96-6.827-47.787-13.653-6.827 0-6.827-6.827-13.653-13.653v0c0 0-13.653-20.48-27.307-40.96-6.827-6.827-13.653-20.48-20.48-27.307l-6.827-6.827c-6.827 0-6.827 6.827-13.653 6.827-20.48 20.48-34.133 34.133-40.96 40.96s-6.827 6.827-6.827 6.827v0 0 0c-13.653 13.653-34.133 13.653-40.96 0-13.653-13.653-13.653-34.133 0-40.96 0 0 13.653-13.653 34.133-34.133 6.827-6.827 20.48-13.653 27.307-20.48s6.827-6.827 13.653-6.827c0 0 6.827 0 6.827-6.827 6.827 0 6.827 0 13.653 0 0 0 6.827 0 13.653 0s6.827 0 13.653 6.827 6.827 6.827 13.653 13.653 13.653 13.653 20.48 20.48v-443.733c0-20.48 20.48-40.96 40.96-40.96s40.96 20.48 40.96 40.96v238.933h27.307v-245.76c0-20.48 20.48-40.96 40.96-40.96s40.96 20.48 40.96 40.96v477.867c0-6.827 6.827-6.827 6.827-13.653 0-13.653 6.827-27.307 6.827-47.787 6.827-27.307 6.827-54.613 6.827-81.92 0-13.653 0-20.48 0-27.307v-6.827c0-13.653 13.653-27.307 34.133-27.307 13.653 0 27.307 13.653 27.307 34.133-13.653-6.827-13.653 20.48-13.653 54.613zM566.613 550.4v0 0 0z" />
<glyph unicode="&#xe918;" glyph-name="wifi" d="M279.893 311.467c-47.787 0-88.747-40.96-88.747-88.747s40.96-88.747 88.747-88.747c47.787 0 88.747 40.96 88.747 88.747 6.827 54.613-27.307 88.747-88.747 88.747v0zM259.413 775.68v0c6.827 0 6.827 0 13.653 0s13.653 0 13.653 0c150.187 0 286.72-61.44 389.12-163.84s163.84-238.933 163.84-389.12c0 0 0-6.827 0-13.653s0-6.827 0-13.653v0c0-34.133-27.307-61.44-61.44-61.44s-61.44 27.307-61.44 61.44v6.827c0 6.827 0 6.827 0 6.827s0 6.827 0 13.653c0 116.053-47.787 225.28-122.88 307.2-75.093 75.093-184.32 122.88-307.2 122.88-6.827 0-13.653 0-13.653 0h-13.653c-34.133 0-61.44 27.307-61.44 61.44s20.48 61.44 61.44 61.44v0zM245.76 543.573c6.827 0 6.827 0 13.653 0s13.653 0 20.48 0c88.747 0 170.667-34.133 225.28-95.573 54.613-54.613 95.573-136.533 95.573-225.28 0-6.827 0-13.653 0-20.48s0-13.653 0-13.653c0-34.133-27.307-54.613-61.44-54.613s-61.44 27.307-61.44 61.44v13.653c0 0 0 6.827 0 13.653 0 54.613-20.48 102.4-61.44 143.36-34.133 34.133-88.747 61.44-143.36 61.44-6.827 0-6.827 0-13.653 0h-13.653c-34.133 0-61.44 27.307-61.44 61.44 13.653 27.307 34.133 54.613 61.44 54.613z" />
<glyph unicode="&#xe919;" glyph-name="cloudy" d="M870.4 594.773c-6.827 0-13.653 0-20.48 0-23.893 58.027-78.507 95.573-143.36 95.573-75.093 0-136.533-54.613-153.6-126.293-23.893 0-44.373-6.827-61.44-20.48-34.133 20.48-71.68 34.133-112.64 34.133-98.987 0-184.32-71.68-201.387-167.253-85.333-3.413-157.013-71.68-157.013-160.427 0-71.68 47.787-133.12 112.64-153.6 13.653-3.413 27.307-6.827 44.373-6.827h426.667c17.067 0 30.72 3.413 47.787 10.24 75.093 23.893 126.293 92.16 126.293 170.667 0 17.067-3.413 34.133-6.827 47.787h105.813c13.653 0 23.893 3.413 34.133 6.827 58.027 17.067 95.573 71.68 95.573 129.707 0 78.507-61.44 139.947-136.533 139.947zM631.467 164.693v0c-10.24-3.413-17.067-6.827-27.307-6.827h-423.253c-6.827 0-13.653 0-23.893 3.413-37.547 10.24-64.853 47.787-64.853 88.747 0 51.2 40.96 92.16 92.16 92.16 6.827 0 13.653 0 20.48-3.413l40.96-6.827v40.96c0 75.093 64.853 136.533 136.533 136.533 64.853 0 119.467-44.373 133.12-105.813l10.24-37.547 34.133 13.653c13.653 3.413 23.893 6.827 37.547 6.827 61.44 0 112.64-51.2 112.64-112.64 0-51.2-30.72-92.16-78.507-109.227zM894.293 376.32c-6.827-3.413-13.653-3.413-20.48-3.413h-126.293c-30.72 47.787-88.747 81.92-150.187 81.92-10.24 0-17.067 0-27.307-3.413-10.24 20.48-20.48 40.96-34.133 54.613 6.827 3.413 13.653 3.413 23.893 3.413 3.413 0 10.24 0 13.653 0l30.72-6.827v30.72c0 58.027 47.787 102.4 105.813 102.4 47.787 0 92.16-34.133 102.4-81.92l6.827-27.307 27.307 10.24c10.24 3.413 20.48 6.827 30.72 6.827 47.787 0 85.333-37.547 85.333-85.333-6.827-37.547-30.72-71.68-68.267-81.92z" />
<glyph unicode="&#xe91a;" glyph-name="partly-cloudy" d="M959.147 328.533l-61.44 27.307c-13.653 6.827-27.307 0-34.133-13.653s0-27.307 13.653-34.133l61.44-27.307c3.413 0 6.827-3.413 10.24-3.413 10.24 0 20.48 6.827 23.893 17.067 6.827 13.653 0 27.307-13.653 34.133zM972.8 512.853l-68.267-10.24c-13.653-3.413-23.893-13.653-20.48-27.307 0-13.653 13.653-20.48 23.893-20.48 0 0 3.413 0 3.413 0l68.267 10.24c13.653 3.413 23.893 13.653 20.48 27.307 0 10.24-13.653 20.48-27.307 20.48zM925.013 639.147c10.24 6.827 13.653 23.893 3.413 34.133-6.827 13.653-23.893 13.653-34.133 6.827l-54.613-40.96c-10.24-6.827-13.653-23.893-3.413-34.133 3.413-6.827 13.653-10.24 20.48-10.24s10.24 0 13.653 6.827l54.613 37.547zM587.093 707.413c3.413 0 3.413 0 0 0 17.067 3.413 27.307 13.653 27.307 30.72l-10.24 68.267c-3.413 13.653-13.653 23.893-27.307 20.48s-23.893-13.653-20.48-27.307l10.24-68.267c0-13.653 10.24-23.893 20.48-23.893zM430.080 663.040c3.413-6.827 10.24-10.24 20.48-10.24 6.827 0 10.24 3.413 13.653 6.827 10.24 6.827 13.653 23.893 3.413 34.133l-40.96 54.613c-6.827 10.24-23.893 13.653-34.133 3.413-10.24-6.827-13.653-23.893-3.413-34.133l40.96-54.613zM727.040 686.933c3.413 0 6.827 0 10.24 0 10.24 0 20.48 6.827 23.893 17.067l23.893 58.027c6.827 13.653 0 27.307-13.653 34.133s-27.307 0-34.133-13.653l-23.893-61.44c-3.413-13.653 0-27.307 13.653-34.133zM826.027 471.893c-13.653 102.4-102.4 180.907-204.8 180.907-10.24 0-17.067 0-27.307 0-47.787-10.24-92.16-34.133-122.88-68.267-23.893 6.827-47.787 13.653-71.68 13.653-98.987 0-184.32-71.68-201.387-167.253-85.333-3.413-157.013-71.68-157.013-160.427 0-68.267 47.787-133.12 112.64-153.6 13.653-3.413 27.307-6.827 44.373-6.827h423.253c17.067 0 30.72 3.413 47.787 10.24 75.093 23.893 126.293 92.16 126.293 170.667 0 13.653 0 27.307-3.413 37.547 27.307 44.373 40.96 92.16 34.133 143.36zM651.947 185.173v0c-10.24-3.413-17.067-6.827-27.307-6.827h-426.667c-6.827 0-13.653 0-23.893 3.413-37.547 10.24-64.853 47.787-64.853 88.747 0 51.2 40.96 92.16 92.16 92.16 6.827 0 13.653 0 20.48-3.413l40.96-6.827v40.96c0 75.093 64.853 136.533 136.533 136.533 64.853 0 119.467-44.373 133.12-105.813l10.24-37.547 34.133 13.653c13.653 3.413 23.893 6.827 37.547 6.827 61.44 0 112.64-51.2 112.64-112.64 3.413-51.2-27.307-95.573-75.093-109.227zM617.813 475.307c-10.24 0-17.067 0-27.307-3.413-13.653 30.72-34.133 58.027-58.027 78.507 20.48 17.067 44.373 30.72 71.68 34.133 6.827 0 13.653 0 17.067 0 68.267 0 129.707-51.2 136.533-119.467 3.413-17.067 0-37.547-3.413-54.613-30.72 37.547-81.92 64.853-136.533 64.853z" />
<glyph unicode="&#xe91b;" glyph-name="rainy" d="M730.453 690.347c-10.24 0-17.067 0-27.307-3.413-30.72 75.093-105.813 126.293-191.147 126.293-98.987 0-184.32-71.68-201.387-167.253-85.333-3.413-157.013-71.68-157.013-160.427 0-71.68 47.787-133.12 112.64-153.6 13.653-3.413 27.307-6.827 44.373-6.827h426.667c17.067 0 34.133 3.413 47.787 10.24 75.093 23.893 126.293 92.16 126.293 170.667 0 102.4-81.92 184.32-180.907 184.32zM764.587 400.213v0c-10.24-3.413-17.067-6.827-27.307-6.827h-423.253c-6.827 0-13.653 0-23.893 3.413-37.547 10.24-64.853 47.787-64.853 88.747 0 51.2 40.96 92.16 92.16 92.16 6.827 0 13.653 0 20.48-3.413l40.96-6.827v40.96c0 75.093 64.853 136.533 136.533 136.533 64.853 0 119.467-44.373 133.12-105.813l10.24-37.547 34.133 13.653c13.653 3.413 23.893 6.827 37.547 6.827 61.44 0 112.64-51.2 112.64-112.64 0-51.2-30.72-95.573-78.507-109.227zM382.293 284.16c-13.653 6.827-27.307 3.413-34.133-10.24l-34.133-58.027c-6.827-13.653-3.413-27.307 10.24-34.133 3.413-3.413 6.827-3.413 13.653-3.413 10.24 0 17.067 3.413 20.48 13.653l34.133 58.027c6.827 10.24 3.413 27.307-10.24 34.133zM542.72 284.16c-13.653 6.827-27.307 3.413-34.133-10.24l-34.133-58.027c-6.827-13.653-3.413-27.307 10.24-34.133 3.413-3.413 6.827-3.413 13.653-3.413 10.24 0 17.067 3.413 20.48 13.653l34.133 58.027c6.827 10.24 0 27.307-10.24 34.133zM703.147 284.16c-13.653 6.827-27.307 3.413-34.133-10.24l-34.133-58.027c-6.827-13.653-3.413-27.307 10.24-34.133 3.413-3.413 6.827-3.413 13.653-3.413 10.24 0 17.067 3.413 20.48 13.653l34.133 58.027c6.827 10.24 0 27.307-10.24 34.133zM430.080 174.933c-13.653 6.827-27.307 3.413-34.133-10.24l-34.133-58.027c-6.827-13.653-3.413-27.307 10.24-34.133 3.413-3.413 6.827-3.413 13.653-3.413 10.24 0 17.067 3.413 20.48 13.653l34.133 58.027c6.827 10.24 0 27.307-10.24 34.133zM590.507 174.933c-13.653 6.827-27.307 3.413-34.133-10.24l-34.133-58.027c-6.827-13.653-3.413-27.307 10.24-34.133 3.413-3.413 6.827-3.413 13.653-3.413 10.24 0 17.067 3.413 20.48 13.653l34.133 58.027c6.827 10.24 0 27.307-10.24 34.133z" />
<glyph unicode="&#xe91c;" glyph-name="sunny-rainy" d="M597.333 792.747c3.413 0 3.413 0 0 0 17.067 3.413 27.307 17.067 27.307 30.72l-10.24 68.267c-3.413 13.653-13.653 23.893-27.307 20.48s-23.893-13.653-20.48-27.307l10.24-68.267c-3.413-13.653 10.24-23.893 20.48-23.893zM436.907 748.373c3.413-6.827 13.653-10.24 20.48-10.24s10.24 0 13.653 6.827c10.24 6.827 13.653 23.893 3.413 34.133l-40.96 54.613c-6.827 10.24-23.893 13.653-34.133 3.413-10.24-6.827-13.653-23.893-3.413-34.133l40.96-54.613zM969.387 413.867l-61.44 27.307c-13.653 6.827-27.307 0-34.133-13.653s0-27.307 13.653-34.133l61.44-27.307c3.413 0 6.827-3.413 10.24-3.413 10.24 0 20.48 6.827 23.893 17.067 6.827 13.653 0 27.307-13.653 34.133zM983.040 598.187l-68.267-10.24c-13.653-3.413-23.893-13.653-20.48-27.307s13.653-20.48 23.893-20.48c0 0 3.413 0 3.413 0l68.267 10.24c13.653 3.413 23.893 13.653 20.48 27.307 0 13.653-13.653 23.893-27.307 20.48zM931.84 724.48c10.24 6.827 13.653 23.893 3.413 34.133-6.827 10.24-23.893 13.653-34.133 3.413l-54.613-40.96c-10.24-6.827-13.653-23.893-3.413-34.133 3.413-6.827 13.653-10.24 20.48-10.24s10.24 0 17.067 6.827l51.2 40.96zM737.28 775.68c3.413 0 6.827-3.413 10.24-3.413 10.24 0 20.48 6.827 23.893 17.067l27.307 61.44c6.827 13.653 0 27.307-13.653 34.133s-27.307 0-34.133-13.653l-27.307-61.44c-6.827-17.067 0-30.72 13.653-34.133zM836.267 557.227c-13.653 102.4-102.4 180.907-204.8 180.907-10.24 0-17.067 0-27.307-3.413-51.2-6.827-92.16-30.72-122.88-64.853-23.893 6.827-47.787 13.653-71.68 13.653-98.987 0-184.32-71.68-201.387-167.253-85.333-3.413-157.013-71.68-157.013-160.427 0-71.68 47.787-133.12 112.64-153.6 13.653-3.413 27.307-6.827 44.373-6.827h423.253c17.067 0 30.72 3.413 47.787 10.24 75.093 23.893 126.293 92.16 126.293 170.667 0 13.653 0 27.307-3.413 37.547 27.307 44.373 40.96 92.16 34.133 143.36zM662.187 270.507v0c-10.24-3.413-17.067-6.827-27.307-6.827h-426.667c-6.827 0-13.653 0-23.893 3.413-37.547 10.24-64.853 47.787-64.853 88.747 0 51.2 40.96 92.16 92.16 92.16 6.827 0 13.653 0 20.48-3.413l40.96-6.827v40.96c0 75.093 64.853 136.533 136.533 136.533 64.853 0 119.467-44.373 133.12-105.813l10.24-37.547 34.133 13.653c13.653 3.413 23.893 6.827 37.547 6.827 61.44 0 112.64-51.2 112.64-112.64 3.413-51.2-30.72-92.16-75.093-109.227zM628.053 560.64c-10.24 0-17.067 0-27.307-3.413-13.653 30.72-34.133 58.027-58.027 78.507 20.48 17.067 44.373 27.307 71.68 34.133 6.827 0 13.653 0 17.067 0 68.267 0 129.707-51.2 136.533-119.467 3.413-17.067 0-37.547-3.413-54.613-34.133 37.547-81.92 64.853-136.533 64.853zM279.893 154.453c-13.653 6.827-27.307 3.413-34.133-10.24l-34.133-58.027c-6.827-13.653-3.413-27.307 10.24-34.133 3.413-3.413 6.827-3.413 13.653-3.413 10.24 0 17.067 3.413 20.48 13.653l34.133 58.027c3.413 10.24 0 27.307-10.24 34.133zM436.907 154.453c-13.653 6.827-27.307 3.413-34.133-10.24l-34.133-58.027c-6.827-13.653-3.413-27.307 10.24-34.133 3.413-3.413 6.827-3.413 13.653-3.413 10.24 0 17.067 3.413 20.48 13.653l34.133 58.027c6.827 10.24 3.413 27.307-10.24 34.133zM597.333 154.453c-13.653 6.827-27.307 3.413-34.133-10.24l-34.133-58.027c-6.827-13.653-3.413-27.307 10.24-34.133 3.413-3.413 6.827-3.413 13.653-3.413 10.24 0 17.067 3.413 20.48 13.653l34.133 58.027c6.827 10.24 3.413 27.307-10.24 34.133z" />
<glyph unicode="&#xe91d;" glyph-name="sunny" d="M512 226.133c-112.64 0-204.8 92.16-204.8 204.8s92.16 204.8 204.8 204.8c112.64 0 204.8-92.16 204.8-204.8s-92.16-204.8-204.8-204.8v0zM512 570.88c-75.093 0-139.947-61.44-139.947-139.947 0-75.093 61.44-139.947 139.947-139.947 75.093 0 139.947 61.44 139.947 139.947s-64.853 139.947-139.947 139.947v0zM515.413 697.173c-13.653 0-23.893 10.24-23.893 23.893v68.267c0 13.653 10.24 23.893 23.893 23.893s23.893-10.24 23.893-23.893v-68.267c3.413-13.653-10.24-23.893-23.893-23.893v0zM372.053 659.627c-10.24 0-17.067 3.413-20.48 13.653l-34.133 58.027c-10.24 10.24-6.827 27.307 6.827 34.133s27.307 3.413 34.133-10.24l34.133-58.027c6.827-13.653 3.413-27.307-10.24-34.133-3.413-3.413-6.827-3.413-10.24-3.413v0zM262.827 553.813c-3.413 0-10.24 0-13.653 3.413l-58.027 34.133c-13.653 6.827-17.067 23.893-10.24 34.133 6.827 13.653 23.893 17.067 34.133 10.24l58.027-34.133c13.653-6.827 17.067-23.893 10.24-34.133-3.413-6.827-10.24-13.653-20.48-13.653v0zM221.867 410.453h-68.267c-13.653 0-23.893 10.24-23.893 23.893s10.24 23.893 23.893 23.893h68.267c13.653 0 23.893-10.24 23.893-23.893s-10.24-23.893-23.893-23.893v0zM201.387 229.547c-10.24 0-17.067 3.413-20.48 13.653-6.827 13.653-3.413 27.307 10.24 34.133l58.027 34.133c13.653 6.827 27.307 3.413 34.133-10.24s3.413-27.307-10.24-34.133l-58.027-34.133c-6.827 0-10.24-3.413-13.653-3.413v0zM331.093 99.84c-3.413 0-10.24 0-13.653 3.413-13.653 6.827-17.067 23.893-10.24 34.133l34.133 58.027c6.827 13.653 23.893 17.067 34.133 10.24 13.653-6.827 17.067-23.893 10.24-34.133l-34.133-58.027c-3.413-10.24-13.653-13.653-20.48-13.653v0zM508.587 48.64c-13.653 0-23.893 10.24-23.893 23.893v68.267c0 13.653 10.24 23.893 23.893 23.893s23.893-10.24 23.893-23.893v-68.267c0-13.653-10.24-23.893-23.893-23.893v0zM686.080 93.013c-10.24 0-17.067 3.413-20.48 13.653l-34.133 58.027c-6.827 13.653-3.413 27.307 10.24 34.133s27.307 3.413 34.133-10.24l34.133-58.027c6.827-13.653 3.413-27.307-10.24-34.133-3.413 0-6.827-3.413-13.653-3.413v0zM819.2 222.72c-3.413 0-10.24 0-13.653 3.413l-58.027 34.133c-13.653 6.827-17.067 23.893-10.24 34.133 6.827 13.653 23.893 17.067 34.133 10.24l58.027-34.133c13.653-6.827 17.067-23.893 10.24-34.133-3.413-6.827-10.24-13.653-20.48-13.653v0zM870.4 400.213h-68.267c-13.653 0-23.893 10.24-23.893 23.893s10.24 23.893 23.893 23.893h68.267c13.653 0 23.893-10.24 23.893-23.893s-10.24-23.893-23.893-23.893v0zM764.587 546.987c-10.24 0-17.067 3.413-20.48 13.653-6.827 13.653-3.413 27.307 10.24 34.133l58.027 34.133c13.653 6.827 27.307 3.413 34.133-10.24s3.413-27.307-10.24-34.133l-58.027-34.133c-3.413-3.413-10.24-3.413-13.653-3.413v0zM662.187 656.213c-3.413 0-10.24 0-13.653 3.413-13.653 6.827-17.067 23.893-10.24 34.133l34.133 58.027c6.827 13.653 23.893 17.067 34.133 10.24 13.653-6.827 17.067-23.893 10.24-34.133l-34.133-58.027c-3.413-10.24-13.653-13.653-20.48-13.653v0z" />
<glyph unicode="&#xe91e;" glyph-name="windy" d="M194.56 461.653h351.573c68.267 0 98.987 47.787 98.987 92.16 0 27.307-10.24 51.2-27.307 71.68-20.48 20.48-51.2 34.133-88.747 34.133-30.72 0-58.027-27.307-58.027-58.027 0-13.653 10.24-23.893 23.893-23.893 3.413 0 3.413 0 3.413 3.413 0 13.653 13.653 27.307 27.307 27.307s27.307-13.653 27.307-27.307c0-30.72-27.307-58.027-58.027-58.027-44.373 0-78.507 34.133-78.507 78.507 0 61.44 51.2 112.64 112.64 112.64 64.853 0 105.813-27.307 126.293-47.787 27.307-27.307 44.373-68.267 44.373-109.227 0-37.547-13.653-78.507-40.96-105.813 10.24-3.413 20.48-6.827 30.72-10.24 30.72-13.653 51.2-37.547 64.853-64.853 10.24-30.72 10.24-61.44 0-92.16-10.24-20.48-23.893-37.547-44.373-44.373-10.24-3.413-20.48-6.827-30.72-6.827s-23.893 3.413-34.133 6.827c-13.653 6.827-27.307 17.067-30.72 34.133-6.827 13.653-6.827 30.72 0 47.787 3.413 10.24 13.653 20.48 27.307 23.893 10.24 3.413 23.893 3.413 37.547 0 13.653-6.827 20.48-23.893 13.653-37.547-3.413-10.24-13.653-17.067-23.893-17.067 0 0 0 0 3.413 0 6.827-3.413 13.653-3.413 20.48 0s13.653 6.827 13.653 13.653c6.827 17.067 6.827 34.133 0 47.787-6.827 17.067-20.48 27.307-34.133 37.547-23.893 10.24-61.44 17.067-102.4 17.067 0 0-3.413 0-3.413 0-3.413 0-10.24 0-13.653 0h-358.4c-13.653 0-27.307 13.653-27.307 27.307s10.24 27.307 27.307 27.307zM307.2 372.907h153.6c61.44 0 112.64-51.2 112.64-112.64 0-44.373-34.133-78.507-78.507-78.507-30.72 0-58.027 27.307-58.027 58.027 0 13.653 13.653 27.307 27.307 27.307s27.307-13.653 27.307-27.307c0-3.413 0-3.413 3.413-3.413 13.653 0 23.893 10.24 23.893 23.893 0 30.72-27.307 58.027-58.027 58.027h-153.6c-13.653 0-27.307 13.653-27.307 27.307 0 17.067 13.653 27.307 27.307 27.307z" />
</font>
</defs>
</svg>
